<svg version="1.2" xmlns="http://www.w3.org/2000/svg" viewBox="0 0 310 324" width="310" height="324">
	<style>
		tspan { white-space:pre } 
		.s0 { fill: #e0942f } 
		.s1 { fill: #652810 } 
		.s2 { fill: #ffffff;stroke: #652810;stroke-miterlimit:10;stroke-width: 2 } 
		.s3 { fill: #f7f7f7 } 
		.s4 { fill: #fdfbfa } 
		.s5 { fill: #ffffff } 
	</style>
	<g id="OBJECTS">
		<g id="&lt;Group&gt;">
			<g id="&lt;Group&gt;">
				<g id="&lt;Group&gt;">
					<path id="&lt;Path&gt;" class="s0" d="m220.75 200.52c0 52.4-42.48 94.88-94.88 94.88-52.4 0-94.88-42.48-94.88-94.88 0-52.4 42.48-94.88 94.88-94.88 52.4 0 94.88 42.48 94.88 94.88z"/>
				</g>
				<g id="&lt;Group&gt;">
					<g id="&lt;Group&gt;">
						<path id="&lt;Path&gt;" class="s1" d="m210.18 128.99c2.48-2.41 5.38-4.43 9.02-6.01q2.49-1.08 5.06-2.02c-16.55-20.96-39.63-36.53-66.15-43.59 2.15 5.74 3.36 11.83 4.2 18.05 18.87 6.68 35.37 18.42 47.87 33.57z"/>
					</g>
					<g id="&lt;Group&gt;">
						<path id="&lt;Path&gt;" class="s1" d="m235.06 202.96c-2.4 58.14-50.42 104.7-109.14 104.7-60.24 0-109.25-49.01-109.25-109.25 0-29.93 12.11-57.08 31.68-76.84 1.35-5.6 3.29-11.14 4.88-16.36 1.25-4.11 2.76-7.98 4.42-11.73-34.27 22.38-56.98 61.04-56.98 104.93 0 69.06 56.19 125.25 125.25 125.25 67.67 0 122.94-53.95 125.15-121.09-5.36 0.55-10.74 0.71-16.01 0.39z"/>
					</g>
				</g>
				<path id="&lt;Path&gt;" class="s2" d="m275.05 175.97c-2.11-0.61-23.37 2.96-30.04 3.11-6.67 0.14-19.28-0.97-14.72-1.95 4.56-0.99 14.07-8.04 13.41-9.64-0.66-1.6-3.5-2.36-8.38-0.02-4.89 2.34-16.9 4.16-22.6 6.71-8.14 3.38-6.89 14.44-6.94 14.45 0 0 1.41 24.73-5.4 41-1.87 4.47-3.39 8.83-4.62 12.83-11.15-13.16-24.92-27.54-31.86-37.52-10.33-14.84-27.45-19.2-27.45-19.2-5.22 20.78 12.36 45.41 12.36 45.41 0 0 38.22 44.79 54.65 52.33 4.82 2.21 7.7 1.23 9.22-1.4 7.03-8.97 11.51-54.42 9.34-85.21 3.05 0.12 9.31 0.06 23-1.4 24.25-2.58 32.13-18.9 30.03-19.5z"/>
				<path id="&lt;Path&gt;" class="s2" d="m202.65 200.61c-2.53 22.32-5.96 39.25-6.67 39.66-11.15-13.16-24.39-25.6-31.33-35.58-10.33-14.84-28.2-18.95-28.2-18.95-5.22 20.78 8.59 49.18 8.59 49.18 0 0 39.75 43.25 56.19 50.8 6.45 2.85 11.89-1.01 13.42-3.64 6.45-8.24 11.67-50.3 10.63-80.47-8.33 0.58-16.79 0.73-22.63-1z"/>
				<path id="&lt;Path&gt;" class="s1" d="m159.9 118.25c0 0-4.08 38.23-22.84 55.94 0 0-11.76-17.58-52.54-8.2-40.78 9.38-5.71-66.72-5.71-66.72 0 0 32.46-35.66 51.15-29.33 18.69 6.33 28.69 27.13 29.94 48.31z"/>
				<path id="&lt;Path&gt;" class="s2" d="m89.04 143.21c0 0 2.6 15.2-4.13 28.24-6.74 13.03 59.52 54.09 59.52 54.09l-12.16-38.23c0 0-14.99-5.65-15.43-13.69-0.43-8.04 3.86-17.38 3.86-17.38z"/>
				<path id="&lt;Path&gt;" class="s2" d="m117.49 179.27c0 0 18.03 5 23.47 8.91 5.43 3.91 29.1 31.06 34.97 41.27 5.87 10.21 2.82 27.16-1.09 39.54-3.91 12.38 1.31 26.69 1.31 26.69 0 0-40.67 20.26-69.74 10.24 0 0-2.13-29.33-4.95-38.02-2.83-8.69-29.56-39.56-29.56-39.56 0 0-26.53-22.91-26.53-38.03 0 0 18.32-13.49 39.36-14.87 21.03-1.38 32.76 3.83 32.76 3.83z"/>
				<path id="&lt;Path&gt;" class="s2" d="m110.77 181.44c0 0-3.47-6.71-3.75-12.38 0 0-17.87-3.56-24.04-11.09 0 0-3.79 7.62-2.81 17.96 0 0 16.98 10.23 30.6 5.51z"/>
				<g id="&lt;Group&gt;">
					<path id="&lt;Path&gt;" class="s1" d="m165.56 274.29c-1.53 7.25 0.49 20.42 1.44 25.77q0.58-0.64 1.33-1.12c-0.96-5.72-2.68-17.79-1.3-24.35 1.64-7.82 6.59-34.14 1.28-44.49-3.37-6.59-11.27-11.01-19.64-15.68-4.34-2.42-8.82-4.93-12.84-7.84-11.53-8.33-24.33-25.42-24.46-25.59l-1.2 0.9c0.13 0.17 13.06 17.44 24.78 25.91 4.09 2.95 8.61 5.48 12.99 7.93 8.16 4.56 15.87 8.87 19.04 15.05 5.21 10.17-0.27 38.02-1.42 43.51z"/>
				</g>
				<path id="&lt;Path&gt;" class="s2" d="m155.83 105.34c0 0-12.39 53.88-39.32 58.44-26.94 4.56-45.84-48.44-45.84-48.44 0 0 5-45.19 38.67-51.27 33.67-6.08 45.4 15.64 46.49 41.27z"/>
				<path id="&lt;Path&gt;" class="s2" d="m168.98 257.61c0 0 5.92-3.67 10.23-2.75 3.08 0.58 12.85 11.49 4.81 21.66 0 0-12.25-6.58-15.04-18.91z"/>
				<path id="&lt;Path&gt;" class="s2" d="m45.37 190.31c0 0-7.38 6.12-4.78 24.37 2.61 18.25 37.58 91.68 63 97.76 20.06 5 79.51-30.85 79.51-30.85 0 0 6.73-20.42-14.56-25.42 0 0-8.47 6.52-19.98 9.12-11.52 2.61-32.37 1.96-39.65 8.26 0 0-10.01-29.09-28.54-53.62"/>
				<path id="&lt;Path&gt;" class="s1" d="m109.54 294.14c-0.35-3.6-0.46-7.18-0.42-10.73 0.04-1.78 0.11-3.55 0.3-5.3 0.13-1.77 0.43-3.5 0.75-5.22l-1.82-0.73c-1.48 2.49-2.72 5.05-3.67 7.75q-0.72 2.03-1.16 4.13c-0.23 1.42-0.44 2.84-0.37 4.26 0.37-1.37 0.76-2.7 1.29-3.99 0.51-1.3 1.08-2.56 1.66-3.81 1.21-2.48 2.51-4.96 3.94-7.29l-1.82-0.72c-0.7 3.62-0.93 7.31-0.67 10.95q0.17 2.74 0.65 5.42c0.37 1.78 0.74 3.56 1.34 5.28z"/>
				<path id="&lt;Path&gt;" class="s1" d="m138.57 83.03c0 0 17.79 1.58 17.26 43.91-0.54 42.34-17.52 55.74-17.52 55.74 0 0 24.67-7.78 27.98-30.74 2.39-19.55-8.41-49.79-10.46-63.91-2.06-14.12-18.24-20.88-18.24-20.88 0 0-10.72-22.78-38.31-12.36-27.59 10.43-49 59.72-47.05 88.83 2.92 32.82 51.36 39.13 51.36 39.13 0-0.01-27.03-18.42-19.16-55.81 7.86-37.39 38.11-51.51 44.28-51.73 6.16-0.21 9.86 7.82 9.86 7.82z"/>
				<g id="&lt;Group&gt;">
					<g id="&lt;Group&gt;">
						<path id="&lt;Path&gt;" class="s1" d="m243.51 187.16c-31.66 0-65.3-5.29-65.3-15.09 0-9.81 33.64-15.1 65.3-15.1 31.66 0 65.3 5.29 65.3 15.1 0 9.8-33.64 15.09-65.3 15.09z"/>
						<path id="&lt;Compound Path&gt;" fill-rule="evenodd" class="s1" d="m309.81 172.07c0 11.81-39.65 16.09-66.3 16.09-26.65 0-66.3-4.28-66.3-16.09 0-11.81 39.65-16.1 66.3-16.1 26.65 0 66.3 4.29 66.3 16.1zm-130.6 0c0 7.78 28.79 14.09 64.3 14.09 35.51 0 64.3-6.31 64.3-14.09 0-7.79-28.79-14.1-64.3-14.1-35.51 0-64.3 6.31-64.3 14.1z"/>
					</g>
					<g id="&lt;Group&gt;">
						<path id="&lt;Path&gt;" class="s3" d="m243.51 179.29c-25.6 0-52.81-4.06-52.81-11.58v-0.46l0.03-0.13c11.67-42.71 48.32-43.95 52.46-43.95h0.64c4.14 0 40.79 1.24 52.46 43.95l0.03 0.13v0.46c0 7.52-27.21 11.58-52.81 11.58z"/>
						<path id="&lt;Compound Path&gt;" fill-rule="evenodd" class="s1" d="m297.25 166.86l0.07 0.26v0.59c0 9.95-35.2 12.58-53.81 12.58-18.61 0-53.81-2.63-53.81-12.58v-0.59l0.07-0.26c11.86-43.43 49.2-44.69 53.42-44.69q0.23 0 0.32 0.01 0.09-0.01 0.32-0.01c4.22 0 41.56 1.26 53.42 44.69zm-53.74-42.68q0-0.01-0.32-0.01c-3.78 0-39.99 1.11-51.49 43.22 0 0 0 0.21 0 0.32 0 5.84 23.19 10.58 51.81 10.58 28.62 0 51.81-4.74 51.81-10.58 0-0.11 0-0.32 0-0.32-11.5-42.11-47.71-43.22-51.49-43.22q-0.32 0-0.32 0.01z"/>
					</g>
					<g id="&lt;Group&gt;">
						<path id="&lt;Path&gt;" class="s1" d="m214.09 138.51c-3.42 4.12-6.71 8.28-9.39 12.79-2.69 4.51-4.76 9.34-6.28 14.37l0.03-0.24c-0.01 0.4-0.01 0.51 0.05 0.75 0.05 0.21 0.18 0.43 0.31 0.65 0.3 0.44 0.76 0.85 1.24 1.24 1 0.75 2.18 1.36 3.37 1.93 2.42 1.1 4.97 2 7.55 2.86-2.69-0.35-5.38-0.85-8-1.74-1.31-0.44-2.6-0.99-3.83-1.77-0.59-0.42-1.21-0.85-1.71-1.52-0.24-0.33-0.47-0.7-0.61-1.14-0.15-0.41-0.17-0.99-0.18-1.26v-0.1l0.03-0.14c1.33-5.25 3.5-10.32 6.51-14.84 2.99-4.54 6.77-8.45 10.91-11.84z"/>
					</g>
					<g id="&lt;Group&gt;">
						<path id="&lt;Path&gt;" class="s3" d="m243.51 127.29c-3.4 0-4.77-1.19-4.91-1.33l-0.42-0.39 0.13-0.57c0.27-1.16 1.8-6.96 5.2-6.96 3.4 0 4.93 5.8 5.2 6.96l0.13 0.57-0.42 0.39c-0.14 0.14-1.51 1.33-4.91 1.33z"/>
						<path id="&lt;Compound Path&gt;" fill-rule="evenodd" class="s1" d="m249.68 124.77l0.27 1.13-0.84 0.79c-0.29 0.27-1.89 1.6-5.6 1.6-3.71 0-5.32-1.33-5.6-1.6l-0.84-0.79 0.26-1.13c0.43-1.81 2.13-7.73 6.18-7.73 4.04 0 5.75 5.92 6.17 7.73zm-10.4 0.46c0 0 1.13 1.06 4.23 1.06 3.1 0 4.23-1.06 4.23-1.06 0 0-1.46-6.19-4.23-6.19-2.78 0-4.23 6.19-4.23 6.19z"/>
					</g>
				</g>
				<g id="&lt;Group&gt;">
					<path id="&lt;Path&gt;" class="s1" d="m126.4 144.95c-1.81 1.35-4.04 2.21-6.35 2.45-2.32 0.28-4.71-0.08-6.9-0.94-2.16-0.94-4.08-2.31-5.68-3.96-0.81-0.82-1.47-1.77-2.18-2.65-0.58-0.99-1.18-1.94-1.7-2.94 0.8 0.81 1.52 1.66 2.27 2.48 0.82 0.74 1.57 1.55 2.41 2.25 1.68 1.4 3.48 2.6 5.45 3.43 3.95 1.61 8.49 1.54 12.68-0.12z"/>
					<path id="&lt;Path&gt;" class="s1" d="m126.4 116.92c-1.41 2.05-1.83 4.52-1.65 6.83 0.25 2.41 0.57 4.88 0.54 7.42-0.04 1.26-0.13 2.56-0.6 3.86-0.23 0.64-0.62 1.29-1.2 1.81-0.6 0.48-1.46 0.74-2.1 0.69-2.81 0.02-5.03-1.83-6.39-3.83 1.8 1.64 4.11 2.89 6.32 2.66 0.6-0.03 0.94-0.25 1.31-0.52q0.48-0.49 0.72-1.29c0.34-1.03 0.43-2.23 0.44-3.41 0.06-2.4-0.19-4.83-0.2-7.34-0.02-2.57 0.94-5.21 2.81-6.88z"/>
					<path id="&lt;Path&gt;" class="s1" d="m150.32 116.92c0 0-2.52-7.64-15.8-3.37 0 0 1.95-2.82 5.21-3.55 3.26-0.73 9.53 1.06 10.59 6.92z"/>
					<path id="&lt;Path&gt;" class="s1" d="m101.57 99.69c0 0 8.26-4.3 15.83 9.95 0 0 0.65-3.91-1.47-7.15-2.11-3.23-8.75-6.81-14.36-2.8z"/>
					<path id="&lt;Path&gt;" class="s1" d="m129.96 121.4c0 0 5.46-4.57 10.18-2.69 4.73 1.88 5.54 5.87 5.54 5.87l2.28 0.41-3.53 1.14c0 0-3.15-10.27-14.47-4.73z"/>
					<path id="&lt;Path&gt;" class="s1" d="m113.25 119.23c0 0-1.42-6.98-6.29-8.45-4.87-1.48-7.99 1.14-7.99 1.14l-2.04-1.1 2.05 3.09c0 0 8.86-6.07 14.27 5.32z"/>
					<path id="&lt;Path&gt;" class="s1" d="m132.16 124.47c0 0 3.47 3.69 8.9 2.88 0 0-5.1 2.88-8.9-2.88z"/>
					<path id="&lt;Path&gt;" class="s1" d="m139.05 122.33c0 1.72-1.02 3.11-2.27 3.11-1.25 0-2.26-1.39-2.26-3.11 0-1.71 1.01-3.1 2.26-3.1 1.25 0 2.27 1.39 2.27 3.1z"/>
					<path id="&lt;Path&gt;" class="s4" d="m135.76 121.14c0 0.66-0.39 1.19-0.87 1.19-0.48 0-0.87-0.53-0.87-1.19 0-0.66 0.39-1.19 0.87-1.19 0.48 0 0.87 0.53 0.87 1.19z"/>
				</g>
				<g id="&lt;Group&gt;">
					<g id="&lt;Group&gt;">
						<path id="&lt;Path&gt;" class="s5" d="m62.65 73.03c-3.97 0-6-2.75-6.78-4.16-0.79 0.16-2.09 0.36-3.61 0.36-3.76 0-10.22-1.3-11.21-10-1.23-10.83 4.04-14.95 5.93-16.06-0.25-6.33 1.32-11.32 4.65-14.86 4.68-4.95 11.43-5.57 14.28-5.59 0.11-3.91 1.79-17.06 19.01-20.65 2.88-0.6 5.74-0.9 8.51-0.9 12.87 0 20.55 6.37 22.39 8.1 3.42-0.82 6.51-1.24 9.2-1.24 5.43 0 9.4 1.68 11.79 4.97 4.09 5.62 2.26 14.14 1.54 16.81 1.7 1.02 5.31 3.98 3.59 9.93-2.11 7.33-12.87 9.76-13.33 9.86l-57.55 20.05c-3.08 2.24-5.91 3.38-8.41 3.38z"/>
						<path id="&lt;Compound Path&gt;" fill-rule="evenodd" class="s1" d="m116.1 8.18c3.29-0.76 6.29-1.15 8.92-1.15 5.77 0 10.01 1.81 12.6 5.38 4.01 5.5 2.7 13.52 1.89 16.92 2.4 1.68 4.98 5.19 3.39 10.69-2.18 7.54-12.61 10.21-13.95 10.53l-57.43 19.99c-3.2 2.31-6.19 3.49-8.87 3.49-3.94 0-6.19-2.4-7.27-4.06-0.83 0.14-1.91 0.26-3.12 0.26-6.97 0-11.42-3.97-12.2-10.89-1.2-10.51 3.53-15.09 5.91-16.7-0.15-6.34 1.51-11.39 4.93-15.01 4.47-4.74 10.69-5.72 14.05-5.88 0.12-1.84 0.56-4.65 1.91-7.65 2.11-4.67 6.93-10.73 17.86-13.01 2.94-0.61 5.87-0.92 8.71-0.92 12.41 0 20.17 5.81 22.67 8.01zm-30.97-5.13c-19.58 4.08-18.21 20.69-18.21 20.69 0 0-0.31-0.02-0.85-0.02-3.81 0-19.15 1.16-18.06 20.04 0 0-7.36 3.09-5.97 15.36 0.88 7.67 6.29 9.11 10.22 9.11 2.35 0 4.17-0.51 4.17-0.51 0 0 1.63 4.31 6.22 4.31 2.03 0 4.63-0.85 7.94-3.28l57.81-20.13c0 0 10.61-2.32 12.58-9.15 1.97-6.84-3.81-9.16-3.81-9.16 0 0 6.88-21.28-12.15-21.28-2.64 0-5.78 0.41-9.5 1.35 0 0-7.78-8.21-22.09-8.21-2.56 0-5.33 0.26-8.3 0.88z"/>
					</g>
					<path id="&lt;Path&gt;" class="s1" d="m54.23 55.13c1.3 1.46 2.83 2.73 4.43 3.81 1.59 1.11 3.31 2.01 5.1 2.65 1.79 0.68 3.67 0.85 5.5 1.14 1.85 0.35 3.73 0.28 5.78 0.44l0.04 0.2c-1.81 0.91-3.89 1.45-5.98 1.35-2.1-0.01-4.12-0.76-5.96-1.66-3.72-1.76-6.82-4.52-9.08-7.81z"/>
					<path id="&lt;Path&gt;" class="s1" d="m69.97 35.77c0.21 2.5 0.91 4.96 2.02 7.17 1.09 2.21 2.57 4.22 4.47 5.74 1.91 1.49 4.06 2.57 6.32 3.44 1.09 0.55 2.31 0.77 3.46 1.27 1.19 0.34 2.41 0.63 3.64 1.08l-0.01 0.2q-1.93 0.18-3.9 0.09c-1.28-0.2-2.61-0.3-3.86-0.75-2.57-0.7-4.81-2.35-6.73-4.15-3.87-3.69-5.72-9.01-5.61-14.1z"/>
					<path id="&lt;Path&gt;" class="s1" d="m110.74 32.73c0.82 2.98 1.13 6.13 0.78 9.3-0.2 1.57-0.43 3.23-1.27 4.67-0.86 1.41-2.09 2.63-3.6 3.26l-0.13-0.15c0.75-1.44 1.4-2.67 1.93-4 0.47-1.34 1.14-2.62 1.49-4.06 0.36-1.43 0.55-2.92 0.64-4.43 0.1-1.5 0.12-3.04-0.03-4.55z"/>
					<path id="&lt;Path&gt;" class="s1" d="m129.58 38.38c-0.1 2.2-0.63 4.39-1.67 6.44-0.53 1-1.1 2.1-2.1 2.8-0.99 0.68-2.21 1.08-3.41 0.94l-0.07-0.19c0.82-0.9 1.52-1.53 2.17-2.27 0.61-0.74 1.43-1.31 2.06-2.13q0.92-1.22 1.61-2.66c0.48-0.94 0.91-1.93 1.21-2.96z"/>
					<g id="&lt;Group&gt;">
						<path id="&lt;Path&gt;" class="s5" d="m69.51 67.16l0.25-0.27c16.42-17.66 44.77-19.57 56.2-19.57 3.11 0 4.96 0.14 5.04 0.15l0.34 0.03 0.26 0.22c0.22 0.2 5.45 5.05 6.78 17.77l0.16 1.48-1.43-0.42c-5.37-1.57-10.98-2.36-16.7-2.36-27.43 0-49.68 18.27-49.9 18.45l-1.74 1.45z"/>
						<path id="&lt;Compound Path&gt;" fill-rule="evenodd" class="s1" d="m131.08 46.47l0.68 0.05 0.5 0.46c0.24 0.21 5.75 5.31 7.12 18.4l0.31 2.97-2.86-0.84c-5.28-1.54-10.8-2.32-16.42-2.32-27.05 0-49.05 18.04-49.26 18.22l-3.48 2.9 0.2-4.52 0.62-14.31 0.03-0.73 0.5-0.54c16.69-17.95 45.38-19.88 56.93-19.88 3.16 0 5.05 0.14 5.13 0.14zm-60.59 21.1l-0.62 14.31c0 0 22.4-18.69 50.54-18.69 5.48 0 11.18 0.71 16.98 2.4-1.31-12.48-6.46-17.12-6.46-17.12 0 0-1.86-0.14-4.98-0.14-11.32 0-39.31 1.87-55.46 19.24z"/>
					</g>
				</g>
				<path id="&lt;Path&gt;" class="s2" d="m114.43 168.94c0 0-0.28 8.62-3.66 12.5 0 0 8.67 1.49 12.52-0.44 0 0 2.74-7.69 3.11-13.19 0 0-4.44 2.13-11.97 1.13z"/>
				<g id="&lt;Group&gt;">
					<path id="&lt;Path&gt;" class="s1" d="m116.69 195.91c1.15 1.74 1.27 3.69 0.26 4.36-1.01 0.67-2.77-0.19-3.92-1.92-1.15-1.74-1.27-3.69-0.26-4.36 1.01-0.67 2.77 0.19 3.92 1.92z"/>
					<path id="&lt;Path&gt;" class="s1" d="m133.95 214.22c1.16 1.74 1.27 3.69 0.26 4.36-1.01 0.67-2.76-0.19-3.92-1.92-1.15-1.74-1.26-3.69-0.25-4.36 1.01-0.67 2.76 0.19 3.91 1.92z"/>
				</g>
				<path id="&lt;Path&gt;" class="s1" d="m195.58 261.19c0.36-3.6 0.47-7.18 0.43-10.73-0.05-1.78-0.11-3.55-0.3-5.3-0.13-1.76-0.43-3.5-0.75-5.22l1.82-0.73c1.48 2.49 2.71 5.05 3.67 7.75q0.72 2.03 1.16 4.13c0.23 1.42 0.44 2.84 0.37 4.27-0.37-1.38-0.76-2.71-1.3-4-0.5-1.29-1.07-2.55-1.65-3.81-1.21-2.48-2.52-4.96-3.94-7.28l1.82-0.73c0.7 3.63 0.92 7.32 0.67 10.96q-0.17 2.73-0.66 5.42c-0.37 1.78-0.73 3.56-1.34 5.27z"/>
				<path id="&lt;Path&gt;" class="s1" d="m84.52 212.06c2.05 3.48 3.63 7.22 4.86 11.09 0.61 1.93 1.31 3.87 1.5 5.91 0.23 2.02 0.22 4.09-0.17 6.13l-0.2 0.01c-0.71-1.96-1.12-3.88-1.6-5.8-0.47-1.92-0.65-3.9-1.07-5.83q-0.62-2.92-1.52-5.77c-0.56-1.91-1.2-3.81-1.98-5.65z"/>
			</g>
		</g>
	</g>
</svg>